<?xml version="1.0" encoding="utf-8"?>
<svg xmlns="http://www.w3.org/2000/svg" xmlns:xlink="http://www.w3.org/1999/xlink" style="margin: auto; background: rgb(241, 242, 243); display: block; shape-rendering: auto;" width="200px" height="200px" viewBox="0 0 100 100" preserveAspectRatio="xMidYMid">
<g transform="translate(50 50)">
<g>
<animateTransform attributeName="transform" type="rotate" values="0;40" keyTimes="0;1" dur="0.6756756756756757s" repeatCount="indefinite"></animateTransform><path d="M29.287369291214944 -6.5 L37.287369291214944 -6.5 L37.287369291214944 6.5 L29.287369291214944 6.5 A30 30 0 0 1 26.613545962071115 13.846269220433648 L26.613545962071115 13.846269220433648 L32.74190150702294 18.98857009792596 L24.385662581097925 28.94714785847268 L18.257307036146102 23.804846980980365 A30 30 0 0 1 11.486948700657248 27.713715188485082 L11.486948700657248 27.713715188485082 L12.876134121992692 35.59217721258275 L0.07363333283398488 37.84960352225284 L-1.3155520885014587 29.97114149815518 A30 30 0 0 1 -9.014519521008612 28.61360581620839 L-9.014519521008612 28.61360581620839 L-13.01451952100861 35.541809046483905 L-24.27284977020631 29.04180904648391 L-20.272849770206314 22.1136058162084 A30 30 0 0 1 -25.297993873569656 16.124872277721526 L-25.297993873569656 16.124872277721526 L-32.81553483985692 18.861033424326877 L-37.26179670309061 6.64502935411008 L-29.744255736803346 3.9088682075047294 A30 30 0 0 1 -29.744255736803346 -3.908868207504722 L-29.744255736803346 -3.908868207504722 L-37.26179670309062 -6.64502935411007 L-32.81553483985693 -18.861033424326866 L-25.29799387356966 -16.12487227772152 A30 30 0 0 1 -20.272849770206328 -22.11360581620838 L-20.272849770206328 -22.11360581620838 L-24.27284977020633 -29.041809046483888 L-13.014519521008642 -35.54180904648389 L-9.014519521008639 -28.61360581620838 A30 30 0 0 1 -1.3155520885014658 -29.97114149815518 L-1.3155520885014658 -29.97114149815518 L0.07363333283397377 -37.84960352225284 L12.876134121992667 -35.592177212582754 L11.486948700657228 -27.71371518848509 A30 30 0 0 1 18.2573070361461 -23.80484698098037 L18.2573070361461 -23.80484698098037 L24.38566258109792 -28.947147858472686 L32.74190150702293 -18.988570097925983 L26.613545962071107 -13.846269220433665 A30 30 0 0 1 29.287369291214944 -6.500000000000001 M0 -44A44 44 0 1 0 0 44 A44 44 0 1 0 0 -44" fill="#35029b"></path></g></g>
<!-- [ldio] generated by https://loading.io/ --></svg>